<mxfile host="app.diagrams.net" modified="2022-03-31T04:46:25.907Z" agent="5.0 (Windows NT 6.1; Win64; x64) AppleWebKit/537.36 (KHTML, like Gecko) Chrome/99.0.4844.84 Safari/537.36" etag="gMB3wNbyG45t2CIIMaMV" version="17.2.4" type="github">
  <diagram id="C5RBs43oDa-KdzZeNtuy" name="Page-1">
    <mxGraphModel dx="3903" dy="762" grid="1" gridSize="10" guides="1" tooltips="1" connect="1" arrows="1" fold="1" page="1" pageScale="1" pageWidth="827" pageHeight="1169" math="0" shadow="0">
      <root>
        <mxCell id="WIyWlLk6GJQsqaUBKTNV-0" />
        <mxCell id="WIyWlLk6GJQsqaUBKTNV-1" parent="WIyWlLk6GJQsqaUBKTNV-0" />
        <mxCell id="54bzJZ9uonPzF5zpoRHr-2" value="" style="edgeStyle=orthogonalEdgeStyle;rounded=0;orthogonalLoop=1;jettySize=auto;html=1;strokeWidth=2;fontStyle=1;fontSize=12;" edge="1" parent="WIyWlLk6GJQsqaUBKTNV-1" source="WIyWlLk6GJQsqaUBKTNV-3" target="54bzJZ9uonPzF5zpoRHr-1">
          <mxGeometry relative="1" as="geometry" />
        </mxCell>
        <mxCell id="WIyWlLk6GJQsqaUBKTNV-3" value="语音及对应标注" style="rounded=1;whiteSpace=wrap;html=1;fontSize=12;glass=0;strokeWidth=2;shadow=0;fontStyle=1" parent="WIyWlLk6GJQsqaUBKTNV-1" vertex="1">
          <mxGeometry x="70" y="120" width="90" height="40" as="geometry" />
        </mxCell>
        <mxCell id="54bzJZ9uonPzF5zpoRHr-10" style="edgeStyle=orthogonalEdgeStyle;rounded=0;orthogonalLoop=1;jettySize=auto;html=1;exitX=0.5;exitY=1;exitDx=0;exitDy=0;entryX=0.5;entryY=0;entryDx=0;entryDy=0;strokeWidth=2;fontStyle=1;fontSize=12;" edge="1" parent="WIyWlLk6GJQsqaUBKTNV-1" source="54bzJZ9uonPzF5zpoRHr-1" target="54bzJZ9uonPzF5zpoRHr-7">
          <mxGeometry relative="1" as="geometry" />
        </mxCell>
        <mxCell id="54bzJZ9uonPzF5zpoRHr-1" value="声学模型" style="rounded=1;whiteSpace=wrap;html=1;fontSize=12;glass=0;strokeWidth=2;shadow=0;fontStyle=1" vertex="1" parent="WIyWlLk6GJQsqaUBKTNV-1">
          <mxGeometry x="180" y="120" width="90" height="40" as="geometry" />
        </mxCell>
        <mxCell id="54bzJZ9uonPzF5zpoRHr-8" value="" style="edgeStyle=orthogonalEdgeStyle;rounded=0;orthogonalLoop=1;jettySize=auto;html=1;strokeWidth=2;fontStyle=1;fontSize=12;" edge="1" parent="WIyWlLk6GJQsqaUBKTNV-1" source="54bzJZ9uonPzF5zpoRHr-3" target="54bzJZ9uonPzF5zpoRHr-7">
          <mxGeometry relative="1" as="geometry" />
        </mxCell>
        <mxCell id="54bzJZ9uonPzF5zpoRHr-3" value="字典" style="rounded=1;whiteSpace=wrap;html=1;fontSize=12;glass=0;strokeWidth=2;shadow=0;fontStyle=1" vertex="1" parent="WIyWlLk6GJQsqaUBKTNV-1">
          <mxGeometry x="290" y="120" width="90" height="40" as="geometry" />
        </mxCell>
        <mxCell id="54bzJZ9uonPzF5zpoRHr-9" style="edgeStyle=orthogonalEdgeStyle;rounded=0;orthogonalLoop=1;jettySize=auto;html=1;exitX=0.5;exitY=1;exitDx=0;exitDy=0;entryX=0.5;entryY=0;entryDx=0;entryDy=0;strokeWidth=2;fontStyle=1;fontSize=12;" edge="1" parent="WIyWlLk6GJQsqaUBKTNV-1" source="54bzJZ9uonPzF5zpoRHr-4" target="54bzJZ9uonPzF5zpoRHr-7">
          <mxGeometry relative="1" as="geometry" />
        </mxCell>
        <mxCell id="54bzJZ9uonPzF5zpoRHr-4" value="语言模型" style="rounded=1;whiteSpace=wrap;html=1;fontSize=12;glass=0;strokeWidth=2;shadow=0;fontStyle=1" vertex="1" parent="WIyWlLk6GJQsqaUBKTNV-1">
          <mxGeometry x="400" y="120" width="90" height="40" as="geometry" />
        </mxCell>
        <mxCell id="54bzJZ9uonPzF5zpoRHr-6" style="edgeStyle=orthogonalEdgeStyle;rounded=0;orthogonalLoop=1;jettySize=auto;html=1;exitX=0;exitY=0.5;exitDx=0;exitDy=0;entryX=1;entryY=0.5;entryDx=0;entryDy=0;strokeWidth=2;fontStyle=1;fontSize=12;" edge="1" parent="WIyWlLk6GJQsqaUBKTNV-1" source="54bzJZ9uonPzF5zpoRHr-5" target="54bzJZ9uonPzF5zpoRHr-4">
          <mxGeometry relative="1" as="geometry" />
        </mxCell>
        <mxCell id="54bzJZ9uonPzF5zpoRHr-5" value="文本语料" style="rounded=1;whiteSpace=wrap;html=1;fontSize=12;glass=0;strokeWidth=2;shadow=0;fontStyle=1" vertex="1" parent="WIyWlLk6GJQsqaUBKTNV-1">
          <mxGeometry x="510" y="120" width="90" height="40" as="geometry" />
        </mxCell>
        <mxCell id="54bzJZ9uonPzF5zpoRHr-16" style="edgeStyle=orthogonalEdgeStyle;rounded=0;orthogonalLoop=1;jettySize=auto;html=1;exitX=1;exitY=0.5;exitDx=0;exitDy=0;entryX=0;entryY=0.5;entryDx=0;entryDy=0;strokeWidth=2;fontStyle=1;fontSize=12;" edge="1" parent="WIyWlLk6GJQsqaUBKTNV-1" source="54bzJZ9uonPzF5zpoRHr-7" target="54bzJZ9uonPzF5zpoRHr-13">
          <mxGeometry relative="1" as="geometry" />
        </mxCell>
        <mxCell id="54bzJZ9uonPzF5zpoRHr-7" value="解码器" style="rounded=1;whiteSpace=wrap;html=1;fontSize=12;glass=0;strokeWidth=2;shadow=0;fontStyle=1" vertex="1" parent="WIyWlLk6GJQsqaUBKTNV-1">
          <mxGeometry x="290" y="230" width="90" height="40" as="geometry" />
        </mxCell>
        <mxCell id="54bzJZ9uonPzF5zpoRHr-14" style="edgeStyle=orthogonalEdgeStyle;rounded=0;orthogonalLoop=1;jettySize=auto;html=1;exitX=1;exitY=0.5;exitDx=0;exitDy=0;entryX=0;entryY=0.5;entryDx=0;entryDy=0;strokeWidth=2;fontStyle=1;fontSize=12;" edge="1" parent="WIyWlLk6GJQsqaUBKTNV-1" source="54bzJZ9uonPzF5zpoRHr-11" target="54bzJZ9uonPzF5zpoRHr-12">
          <mxGeometry relative="1" as="geometry" />
        </mxCell>
        <mxCell id="54bzJZ9uonPzF5zpoRHr-11" value="语音输入&lt;span style=&quot;color: rgba(0, 0, 0, 0); font-family: monospace; font-size: 12px;&quot;&gt;%3CmxGraphModel%3E%3Croot%3E%3CmxCell%20id%3D%220%22%2F%3E%3CmxCell%20id%3D%221%22%20parent%3D%220%22%2F%3E%3CmxCell%20id%3D%222%22%20value%3D%22%E8%AF%AD%E9%9F%B3%E5%8F%8A%E5%AF%B9%E5%BA%94%E6%A0%87%E6%B3%A8%22%20style%3D%22rounded%3D1%3BwhiteSpace%3Dwrap%3Bhtml%3D1%3BfontSize%3D12%3Bglass%3D0%3BstrokeWidth%3D1%3Bshadow%3D0%3B%22%20vertex%3D%221%22%20parent%3D%221%22%3E%3CmxGeometry%20x%3D%2270%22%20y%3D%22120%22%20width%3D%2290%22%20height%3D%2240%22%20as%3D%22geometry%22%2F%3E%3C%2FmxCell%3E%3C%2Froot%3E%3C%2FmxGraphModel%3E&lt;/span&gt;" style="rounded=1;whiteSpace=wrap;html=1;fontSize=12;glass=0;strokeWidth=2;shadow=0;fontStyle=1" vertex="1" parent="WIyWlLk6GJQsqaUBKTNV-1">
          <mxGeometry x="70" y="230" width="90" height="40" as="geometry" />
        </mxCell>
        <mxCell id="54bzJZ9uonPzF5zpoRHr-15" style="edgeStyle=orthogonalEdgeStyle;rounded=0;orthogonalLoop=1;jettySize=auto;html=1;exitX=1;exitY=0.5;exitDx=0;exitDy=0;entryX=0;entryY=0.5;entryDx=0;entryDy=0;strokeWidth=2;fontStyle=1;fontSize=12;" edge="1" parent="WIyWlLk6GJQsqaUBKTNV-1" source="54bzJZ9uonPzF5zpoRHr-12" target="54bzJZ9uonPzF5zpoRHr-7">
          <mxGeometry relative="1" as="geometry" />
        </mxCell>
        <mxCell id="54bzJZ9uonPzF5zpoRHr-12" value="特征提取" style="rounded=1;whiteSpace=wrap;html=1;fontSize=12;glass=0;strokeWidth=2;shadow=0;fontStyle=1" vertex="1" parent="WIyWlLk6GJQsqaUBKTNV-1">
          <mxGeometry x="180" y="230" width="90" height="40" as="geometry" />
        </mxCell>
        <mxCell id="54bzJZ9uonPzF5zpoRHr-13" value="本文输出" style="rounded=1;whiteSpace=wrap;html=1;fontSize=12;glass=0;strokeWidth=2;shadow=0;fontStyle=1" vertex="1" parent="WIyWlLk6GJQsqaUBKTNV-1">
          <mxGeometry x="400" y="230" width="90" height="40" as="geometry" />
        </mxCell>
      </root>
    </mxGraphModel>
  </diagram>
</mxfile>
